<?xml version="1.0" encoding="utf-8"?>
<!-- Generator: Adobe Illustrator 23.1.0, SVG Export Plug-In . SVG Version: 6.00 Build 0)  -->
<svg version="1.1" id="Ebene_1" xmlns="http://www.w3.org/2000/svg" xmlns:xlink="http://www.w3.org/1999/xlink" x="0px" y="0px"
	 viewBox="0 0 250 250" style="enable-background:new 0 0 250 250;" xml:space="preserve">
<style type="text/css">
	.st0{fill:#4AAED9;}
</style>
<path id="path3627" class="st0" d="M47.4,4C36.6,4.2,26,9.4,19.2,18.8c-11.5,16-7.8,38.3,8.2,49.7c0.6,0.5,1.3,0.8,1.9,1.2
	c14.6-11.5,38.4-44.6,41.6-57.5c-0.7-0.6-1.3-1.1-2-1.6C62.4,6,54.8,3.8,47.4,4z M73.9,15.1c-4,17.7-25.5,42.9-39.7,57.3
	c7.5,3.2,15.7,3.6,23.3,1.6c0,0,0,0,0.1,0C62.4,69,67.7,62.6,72,56.7c4.3-6,8.7-12.9,11.7-19.2C83.1,29.3,79.8,21.3,73.9,15.1
	L73.9,15.1z M115.9,37.8c-2.2,0.1-4.3,1.1-5.5,3.1L99.7,57.5c-1.1,1.7-4.6,4.7-4.1,6.5c0.4,1.5,4,3.3,5.5,4.3l13.7,5.9
	c3.1,2,5.9,1.1,7.9-2l10.6-16.6c0.9-1.4,2.3-3.4,2.1-4.9c-0.3-1.9-2.4-3.3-4.1-4.4l-11.6-7.4C118.5,38.1,117.2,37.8,115.9,37.8z
	 M86.7,39.8C86.7,39.8,86.7,39.8,86.7,39.8l0,0.2c-1.2,2.3-2.5,4.6-3.8,6.9c0,0,0,0.1-0.1,0.1c-2.4,4-5,8-7.9,12.1
	c-2.9,4-5.9,7.8-8.9,11.3c0,0,0,0,0,0c-1.8,2-3.5,4-5.3,5.9c3.2,1.9,6.8,4.1,10.3,6.3c2.8-4.1,5.8-8,8.8-11.8
	c3.2-4.3,8.6-8.3,14.1-5.2c-2.2-5.1,4.8-8.3,6.2-12.6c0.4-0.4,0.7-0.8,1.1-1.3C96,47.5,91.1,43.5,86.7,39.8L86.7,39.8z M142.5,51
	c-2.3,0-4.5,1.2-5.7,3.3l-10,16.7c-1,1.7-3.4,4.4-2.9,6.2c0.5,1.6,3.7,2.2,5.2,3.1c2.4,1.2,11.2,3.6,11.3,6.8
	c0.1,3.6-3.4,10.1-0.9,14c1.3,0.7,5.1-4.3,7.6-8c1.1-1.6,2.3-2.6,2.7-3.1c1-1.2,2-2,2.8-3.4l10-16.6c1.9-3.2,0.9-7.4-2.3-9.3
	L146.1,52C145,51.3,143.7,51,142.5,51L142.5,51z M89.5,66.6c-0.2,0-0.3,0-0.5,0c-1.5,0.5-2.9,1.2-4.1,2.1c-0.1,0.1-0.2,0.1-0.3,0.2
	c-1.9,1.6-4,4-6.2,6.9c-2.1,3-4,6.2-6.2,8.7c-8.7,13.1-17,29.1-17,32.3c0,5.8,18.2,24.9,27.1,40.3c8.7,15.2,19.6,26.1,18.5,28.4
	c-2.7,15.5-4.1,22.3-6.8,41.4C91.5,246,94.2,246,94.2,246s70.7-0.2,72.1-0.4c1.4-0.1,1.1-2.1,1.1-2.1c0-2.3,0.5-4.9,0.9-6.9
	c0.5-2,0.4-16,0.4-21.7c-0.7-5.4,1-25.2,1.2-26.1c0.2-0.9,1.6-2.6,3.2-4.2c1.6-1.6,4.2-6.6,4.2-6.6c3.2-4.3,3.9-3.3,5.5-6.7
	c1.1-2.3,2.6-9.8,3.8-14.7c-5.5-3.4-10.9-7-16.4-10.2l-0.9,0.8c-0.5,0.7-1.5,0.7-2-0.5c-0.5-1.2-1.8-2.1-1.8-2.1
	c-1.6-0.6-5.1-4.5-9.8-8.7c-4.1-5-9-4.7-11.7-5.7c-2.7-1.1-20.7-4.9-23-5c-2.3-0.1,0,2.9,0,2.9c4.2,5.5,17.9,21.9,17.9,22
	c-0.1-0.1-0.3,0,2,5.3c2.6,6,4.4,12.7,6.1,15.5c1.4,5.9,4.3,7.7,5.9,8.6c1.6,0.8,1,1.6,1,1.6c-1.1,0.6-3.3,2.9-4.6,2.9
	c-1.3,0-2.7,1.9-2.7,1.9c-1.6,1.4,0.6,37.3,0.6,38.9c0,1.6-0.9,2-0.9,2s-0.8-0.8-0.6-1.6c0.2-0.8-0.4-10.5-0.8-12.7
	c-0.9-1.8-0.6-4.1-0.6-4.1c0.6-2.7-2-19.4-2.7-21.6c-0.7-2.2,0-4.6-0.9-5.5c-0.9-0.9-9.5,0-10.2-0.8c-0.7-0.7,0-0.7,0-0.7
	c4.3-0.4,14.1-7.6,14.1-9.8c0-2.2-30.7-47.6-33.6-49.3c-2.9-1.7-7.8-2.7-9.2-3.4c-1.4-0.7-3.7-2.7-7.3-3.1s-4.1-1.2-4.3-1.7
	c-0.3-0.5,2.9-1,2.9-1c4.2-2.9,6.8-10.1,5.6-12.9c-1.1-2.8-0.2-3.4-0.2-3.4c3.4,1.6,13,12,13,12c6.6,1.4,18.3-3.2,22.2-5
	c3.9-1.8,4.8-12.7,4.1-15c-0.3-0.9-7.6-4.5-16.4-8.5c-0.3-0.1-0.7-0.2-0.9-0.4c-7.8-3.5-16.6-7.1-23.1-9.4c0.2,0.4,0.5,0.9,0.7,1.3
	c-1.6-0.7-3-1.8-4.6-2.7c0,0-0.1,0-0.1,0C91.7,67.1,90.4,66.7,89.5,66.6L89.5,66.6z M165.8,74.4c-1.9,0-3.9,0.9-5.2,2.5L135,113.7
	c-2.3,2.9-1.8,7.2,1.1,9.5l12.1,5.8c2.9,2.3,7.2,1.8,9.5-1.1l24.8-31.4c2.3-2.9,1.8-7.2-1.1-9.5l-11.2-11.1
	C168.9,74.8,167.4,74.4,165.8,74.4z M121.7,76.2C120.7,76.4,122,77.2,121.7,76.2z M187.8,96.4c-0.6,0-1.1,0.2-1.6,0.6l-27.6,33.1
	c-1.7,1.6-1.9,4.3-0.4,5.8l7.5,7.8c1.5,1.5,4.1,1.5,5.8-0.2l30.2-29.2c1.7-1.6,1.9-4.3,0.4-5.8l-9.4-9.6
	C191.7,97.8,189.6,96.3,187.8,96.4z M136.5,104.9l-16.1,4.4c-2.7,0.7-8.3,2.5-10-0.2c-1.6-2.7-1.7-3.4-3.7-3.3
	c-3.3,0.7-2.5,3.5-1.7,4.4c1.6,1.8,12.3,9,17.9,11c0.7,0.2,1.3-0.2,2.3-1.8c1.1-1.6,10.4-12,11.2-13.3
	C137.2,104.9,136.5,104.9,136.5,104.9z M194.2,124.7c-4.4,4.1-8.9,8.1-13,12.4c-2.8,2-5.5,6.1-8.7,8.4c9.6,5.9,18.7,11.5,26.6,16.3
	c2.2,1.5,7.3-1.9,11.4-7.7c4.1-5.8,5.7-11.6,3.6-13.2C208.2,135.9,201.5,130.4,194.2,124.7z M216.6,147.2c-1.5,5.7-5.5,11-10.4,14.5
	l4.8,3.2c2.1,1.5,5.1,0.9,6.5-1.2l4.9-7c1.5-2.1,1-5-1.2-6.4L216.6,147.2z"/>
</svg>
